<svg width="646" height="629" viewBox="0 0 646 629" fill="none" xmlns="http://www.w3.org/2000/svg">
<path fill-rule="evenodd" clip-rule="evenodd" d="M308.96 42.3924C357.528 51.643 403.375 60.1784 450.66 74.6163C516.42 94.695 612.37 80.956 640.597 143.652C668.88 206.474 576.355 263.948 566.605 332.149C556.841 400.442 635.503 487.347 584.777 534.102C531.337 583.358 442.846 493.294 372.397 511.151C306.508 527.853 278.932 629.533 210.962 628.855C146.031 628.207 101.301 560.64 63.1908 508.066C27.297 458.549 -6.64256 400.03 1.11741 339.367C8.52866 281.429 81.3619 255.268 102.494 200.816C125.807 140.743 76.6098 52.3348 127.732 13.1086C177.283 -24.9129 247.605 30.7062 308.96 42.3924Z" fill="#D6D7D7"/>
</svg>