<svg width="674" height="652" viewBox="0 0 674 652" fill="none" xmlns="http://www.w3.org/2000/svg">
<path fill-rule="evenodd" clip-rule="evenodd" d="M345.31 0.0212826C417.859 -1.63622 449.01 93.9438 505.861 139.045C559.125 181.298 644.231 191.448 667.252 255.42C690.314 319.508 646.391 386.834 617.168 448.357C591.517 502.361 557.889 550.909 509.938 586.617C461.513 622.678 405.552 646.77 345.31 650.802C281.883 655.047 219.444 640.609 163.851 609.781C102.239 575.616 39.4085 533.422 14.6729 467.456C-10.5137 400.287 -2.34095 321.2 32.0295 258.234C63.7298 200.16 138.945 188.342 190.001 146.261C246.249 99.8998 272.437 1.68616 345.31 0.0212826Z" fill="#D6D7D7"/>
</svg>
