<svg width="639" height="666" viewBox="0 0 639 666" fill="none" xmlns="http://www.w3.org/2000/svg">
<path fill-rule="evenodd" clip-rule="evenodd" d="M301.432 7.78302C346.092 -14.5283 402.555 15.7516 445.904 40.5142C488.187 64.6675 531.071 99.5429 544.169 146.443C557.857 195.457 499.226 247.276 516.966 294.973C535.886 345.838 639.287 346.181 638.645 400.447C638.041 451.614 542.046 444.885 514.684 488.126C488.913 528.854 526.866 594.651 493.659 629.582C462.709 662.138 406.449 644.141 361.788 648.958C320.679 653.391 274.771 678.363 239.365 657.009C200.284 633.439 212.405 565.143 176.373 537.133C142.052 510.454 84.1186 537.288 50.2676 510.014C17.8765 483.917 -7.07718 437.129 1.81838 396.495C11.6462 351.603 90.6666 344.019 96.584 298.445C104.472 237.694 -1.65173 174.424 36.8409 126.766C74.026 80.7262 155.56 182.871 209.534 158.599C263.818 134.189 248.187 34.3832 301.432 7.78302Z" fill="#D6D7D7"/>
</svg>